<?xml version="1.0" standalone="no"?>
<!DOCTYPE svg PUBLIC "-//W3C//DTD SVG 20010904//EN"
 "http://www.w3.org/TR/2001/REC-SVG-20010904/DTD/svg10.dtd">
<svg version="1.0" xmlns="http://www.w3.org/2000/svg"
 width="700.000000pt" height="700.000000pt" viewBox="0 0 700.000000 700.000000"
 preserveAspectRatio="xMidYMid meet">
<metadata>
Created by potrace 1.11, written by Peter Selinger 2001-2013
</metadata>
<g transform="translate(0.000000,700.000000) scale(0.100000,-0.100000)"
fill="#000000" stroke="none">
<path d="M1425 6986 c-114 -28 -241 -122 -456 -336 -235 -234 -401 -449 -562
-730 -90 -156 -218 -455 -266 -620 -12 -41 -28 -95 -36 -120 -16 -56 -52 -219
-60 -280 -3 -25 -10 -69 -15 -98 -13 -76 -23 -210 -24 -327 l-1 -100 1743 0
c958 0 1742 4 1742 8 0 5 -36 64 -80 133 -44 69 -80 127 -80 130 0 3 -5 10
-10 17 -13 16 -33 46 -169 262 -123 195 -190 300 -226 355 -13 19 -182 285
-375 590 -194 305 -407 641 -473 745 -157 248 -224 310 -387 365 -50 17 -206
20 -265 6z"/>
<path d="M6058 5685 c-2 -2 -29 -6 -61 -9 -115 -14 -278 -78 -376 -149 -161
-117 -292 -303 -337 -479 -8 -32 -18 -68 -21 -80 -4 -13 -8 -248 -10 -523 -3
-275 -6 -501 -9 -504 -2 -2 -1183 -4 -2624 -4 l-2621 0 6 -118 c3 -65 8 -126
9 -136 2 -10 7 -43 11 -73 4 -30 20 -111 36 -180 99 -439 323 -835 666 -1182
62 -63 91 -99 82 -102 -146 -44 -279 -111 -394 -201 -158 -124 -277 -287 -346
-477 -34 -92 -34 -92 -54 -198 -13 -73 -14 -290 -1 -355 27 -136 58 -223 120
-340 140 -265 401 -469 691 -540 105 -25 117 -27 245 -30 156 -3 273 16 418
70 58 21 205 98 222 115 3 3 28 22 56 43 147 106 295 313 359 502 70 205 79
426 25 623 -11 40 -20 74 -20 76 0 2 44 -7 98 -20 129 -31 351 -70 447 -79 28
-2 88 -8 135 -12 103 -9 430 -9 520 1 36 3 92 9 125 12 33 3 71 8 85 10 14 2
68 11 120 20 52 8 122 22 155 29 33 8 87 21 120 28 l60 14 -22 -88 c-47 -188
-47 -338 3 -536 88 -353 391 -665 747 -768 146 -42 376 -54 515 -26 207 41
405 146 555 294 97 95 159 181 216 297 59 121 71 158 98 290 22 110 21 295 -3
400 -3 14 -8 38 -11 55 -14 80 -82 234 -150 337 -55 86 -214 248 -296 301 -79
53 -199 111 -278 137 l-66 21 86 87 c171 173 322 368 417 537 153 275 234 495
283 775 31 176 34 238 36 765 2 270 3 492 4 495 0 3 151 4 334 3 217 -1 349 2
377 9 59 15 134 88 149 145 7 27 11 137 11 295 -1 222 -4 259 -19 294 -22 47
-87 106 -134 121 -29 9 -780 16 -789 8z m-4838 -4175 c101 -31 209 -118 259
-210 29 -54 49 -141 48 -212 -1 -156 -85 -298 -220 -372 -56 -30 -75 -37 -142
-52 -49 -11 -148 -3 -206 16 -301 102 -398 470 -186 705 111 124 289 173 447
125z m3929 1 c82 -24 129 -52 190 -112 79 -80 118 -165 125 -276 19 -298 -265
-531 -546 -449 -210 61 -345 261 -318 469 15 115 54 191 137 269 112 103 269
141 412 99z"/>
</g>
</svg>
